HIERARCHY
ROOT Hips
{
 OFFSET 0.000000 0.000000 0.000000
 CHANNELS 6 Xposition Yposition Zposition Yrotation Xrotation Zrotation
 JOINT Chest
 {
  OFFSET 0.000000 7.059336 -5.247920
  CHANNELS 3 Yrotation Xrotation Zrotation
  JOINT Chest2
  {
   OFFSET 0.000000 7.260249 -0.012334
   CHANNELS 3 Yrotation Xrotation Zrotation
   JOINT Chest3
   {
    OFFSET 0.000000 10.373451 0.006373
    CHANNELS 3 Yrotation Xrotation Zrotation
    JOINT Chest4
    {
     OFFSET 0.000000 10.698336 0.007009
     CHANNELS 3 Yrotation Xrotation Zrotation
     JOINT Neck
     {
      OFFSET 0.000000 17.611717 -0.005949
      CHANNELS 3 Yrotation Xrotation Zrotation
      JOINT Head
      {
       OFFSET 0.000000 10.428166 0.000000
       CHANNELS 3 Yrotation Xrotation Zrotation
       End Site
       {
        OFFSET 0.000000 15.755040 0.000000
       }
      }
     }
     JOINT RightCollar
     {
      OFFSET -2.953024 10.997740 -0.002975
      CHANNELS 3 Yrotation Xrotation Zrotation
      JOINT RightShoulder
      {
       OFFSET -16.231945 0.000000 0.000000
       CHANNELS 3 Yrotation Xrotation Zrotation
       JOINT RightElbow
       {
        OFFSET -24.272403 0.000000 0.000000
        CHANNELS 3 Yrotation Xrotation Zrotation
        JOINT RightWrist
        {
         OFFSET -24.375950 0.000000 0.000000
         CHANNELS 3 Yrotation Xrotation Zrotation
         End Site
         {
          OFFSET -17.561513 0.650067 0.097025
         }
        }
       }
      }
     }
     JOINT LeftCollar
     {
      OFFSET 2.953024 10.997740 -0.002975
      CHANNELS 3 Yrotation Xrotation Zrotation
      JOINT LeftShoulder
      {
       OFFSET 16.231945 0.000000 0.000000
       CHANNELS 3 Yrotation Xrotation Zrotation
       JOINT LeftElbow
       {
        OFFSET 24.272403 0.000000 0.000000
        CHANNELS 3 Yrotation Xrotation Zrotation
        JOINT LeftWrist
        {
         OFFSET 24.375950 0.000000 0.000000
         CHANNELS 3 Yrotation Xrotation Zrotation
         End Site
         {
          OFFSET 17.561513 0.650067 0.097025
         }
        }
       }
      }
     }
    }
   }
  }
 }
 JOINT RightHip
 {
  OFFSET -7.581765 -0.018494 0.002929
  CHANNELS 3 Yrotation Xrotation Zrotation
  JOINT RightKnee
  {
   OFFSET 0.000000 -40.828213 0.001904
   CHANNELS 3 Yrotation Xrotation Zrotation
   JOINT RightAnkle
   {
    OFFSET 0.000000 -40.992668 0.003210
    CHANNELS 3 Yrotation Xrotation Zrotation
    JOINT RightToe
    {
     OFFSET 0.000000 -5.374198 13.684677
     CHANNELS 3 Yrotation Xrotation Zrotation
     End Site
     {
      OFFSET 0.000000 -1.226226 6.636092
     }
    }
   }
  }
 }
 JOINT LeftHip
 {
  OFFSET 7.581765 -0.020689 0.003277
  CHANNELS 3 Yrotation Xrotation Zrotation
  JOINT LeftKnee
  {
   OFFSET 0.000000 -40.828213 0.001904
   CHANNELS 3 Yrotation Xrotation Zrotation
   JOINT LeftAnkle
   {
    OFFSET 0.000000 -40.992668 0.003210
    CHANNELS 3 Yrotation Xrotation Zrotation
    JOINT LeftToe
    {
     OFFSET 0.000000 -5.374198 13.684677
     CHANNELS 3 Yrotation Xrotation Zrotation
     End Site
     {
      OFFSET 0.000000 -1.226226 6.636092
     }
    }
   }
  }
 }
}
MOTION
Frames: 16
Frame Time: 0.004167
90.250674 80.524490 -2273.960786 173.616563 -8.810868 -4.268650 8.467371 1.778954 -0.989338 4.166924 -12.708147 -0.645933 2.846548 0.118164 0.175882 0.821221 9.534006 0.046996 7.195099 1.178272 0.452042 13.373187 2.136408 0.954617 0.484344 -4.567688 8.795257 8.974880 -19.487603 58.869249 73.262010 -8.795058 35.962197 12.717797 7.883705 -16.054553 -1.223991 -4.222309 -10.865947 17.884665 6.025109 -61.419665 2.966961 1.990695 -2.389651 -7.175594 3.862680 -1.189937 0.843149 -12.692008 -4.473385 -4.345735 79.275167 -0.089538 12.588292 7.327429 27.011902 0.697768 2.965632 2.133491 17.230174 -26.687680 -3.176916 3.456103 36.006257 -0.898210 8.643848 -4.222430 7.253327 -0.000000 -0.000000 -0.000000
90.336324 80.469302 -2274.591874 173.661258 -9.033657 -4.006511 8.593780 2.024326 -1.127290 4.242866 -12.592879 -0.720085 2.899344 0.197191 0.134501 0.834187 9.556388 0.034522 7.256327 0.973732 0.441000 13.484526 1.758428 0.914414 0.417314 -4.590844 8.933079 8.523664 -19.795321 58.805042 73.666405 -8.853364 36.349265 12.701076 7.973517 -16.058408 -1.303849 -4.187518 -10.935234 17.543824 5.367287 -61.429424 4.225624 1.839715 -1.799089 -7.006672 3.954475 -1.105092 0.815027 -13.075573 -4.849946 -4.737471 79.788757 -0.636121 11.855498 6.211790 25.982494 0.711689 2.893015 2.130195 16.874503 -26.522046 -3.083823 4.067788 37.060566 -0.711104 8.393385 -5.160424 7.097510 0.000000 -0.000000 -0.000000
90.423524 80.419815 -2275.214560 173.706670 -9.248755 -3.743173 8.725557 2.267915 -1.263711 4.321325 -12.477024 -0.793534 2.953943 0.275884 0.093899 0.847712 9.578672 0.022256 7.317622 0.770596 0.425889 13.596184 1.383525 0.866514 0.351901 -4.612076 9.060952 8.036068 -20.089427 58.783563 74.047662 -8.885435 36.729399 12.686904 8.063882 -16.060925 -1.383420 -4.144510 -11.003509 17.183475 4.673296 -61.452409 5.465510 1.672947 -1.202930 -6.836089 4.040661 -1.003838 0.778088 -13.477467 -5.213423 -5.179753 80.247495 -1.249925 11.145958 5.076975 24.915388 0.675403 2.614801 1.982161 16.548121 -26.336924 -2.997704 4.779037 38.071912 -0.470219 8.041593 -6.141598 6.915852 0.000000 -0.000000 -0.000000
90.511542 80.377803 -2275.829325 173.759143 -9.451995 -3.486120 8.858184 2.505315 -1.395815 4.399822 -12.363120 -0.864774 3.008629 0.352733 0.054792 0.861343 9.600429 0.010417 7.380413 0.572560 0.406542 13.710868 1.018543 0.811000 0.288095 -4.630897 9.176305 7.529743 -20.359044 58.807103 74.393679 -8.894875 37.087916 12.674167 8.150956 -16.064236 -1.462305 -4.098002 -11.070489 16.820442 3.959438 -61.483219 6.659983 1.476608 -0.616584 -6.666411 4.115206 -0.890248 0.726568 -13.893292 -5.557061 -5.657427 80.641774 -1.916385 10.470893 3.945268 23.842326 0.599420 2.191129 1.724453 16.251619 -26.136230 -2.919441 5.547192 39.032359 -0.186689 7.618709 -7.138957 6.715049 -0.000000 -0.000000 -0.000000
90.599645 80.345037 -2276.436651 173.825118 -9.639254 -3.242885 8.987222 2.732044 -1.520892 4.475919 -12.253737 -0.932333 3.061705 0.426211 0.017885 0.874631 9.621229 -0.000779 7.446116 0.383318 0.382844 13.831258 0.670323 0.748052 0.225852 -4.646776 9.276567 7.022490 -20.593103 58.877460 74.692381 -8.884722 37.409901 12.661752 8.230909 -16.070541 -1.540083 -4.052718 -11.135939 16.471360 3.242067 -61.517059 7.782156 1.237642 -0.055529 -6.500176 4.172190 -0.768488 0.654313 -14.318637 -5.874078 -6.147850 80.962123 -2.613398 9.839182 2.840408 22.793837 0.494805 1.682239 1.391850 15.985569 -25.923841 -2.849733 6.327692 39.934064 0.125701 7.154849 -8.125235 6.500725 -0.000000 -0.000000 0.000000
90.687100 80.323292 -2277.037019 173.911114 -9.806437 -3.021041 9.108308 2.943549 -1.636305 4.547212 -12.151470 -0.994773 3.111488 0.494770 -0.016134 0.887129 9.640633 -0.011119 7.516143 0.206566 0.354745 13.960000 0.345703 0.677964 0.165105 -4.659143 9.359172 6.532318 -20.780429 58.995956 74.931711 -8.857661 37.680191 12.648552 8.299917 -16.082082 -1.616312 -4.013387 -11.199687 16.152689 2.537592 -61.549714 8.804991 0.943647 0.464736 -6.339924 4.205810 -0.642786 0.554800 -14.749072 -6.157653 -6.620813 81.199245 -3.311265 9.257355 1.787359 21.799522 0.372537 1.148442 1.018813 15.750535 -25.703600 -2.789125 7.074017 40.769410 0.450594 6.680062 -9.072980 6.277476 -0.000000 -0.000000 -0.000000
90.773173 80.314340 -2277.630912 174.023708 -9.949456 -2.828177 9.217137 3.135207 -1.739489 4.611329 -12.058947 -1.050689 3.156315 0.556847 -0.046587 0.898394 9.658199 -0.020391 7.591893 0.046000 0.322259 14.099698 0.051516 0.601151 0.105762 -4.667387 9.421555 6.077485 -20.909839 59.163493 75.099641 -8.816326 37.883352 12.633482 8.354145 -16.101121 -1.690531 -3.984743 -11.261616 15.880739 1.862457 -61.577455 9.701454 0.582752 0.928740 -6.188215 4.210370 -0.517384 0.421156 -15.180130 -6.400907 -7.040032 81.344033 -3.974197 8.729702 0.812045 20.888387 0.243059 0.650040 0.639596 15.547088 -25.479321 -2.738033 7.737774 41.531099 0.769290 6.224394 -9.954611 6.048948 0.000000 -0.000000 -0.000000
90.857133 80.319954 -2278.218812 174.169510 -10.064207 -2.671876 9.309458 3.302333 -1.827944 4.665928 -11.978820 -1.098710 3.194533 0.610858 -0.072814 0.907988 9.673481 -0.028387 7.674760 -0.094687 0.285470 14.252916 -0.205414 0.518172 0.047719 -4.670861 9.461152 5.676535 -20.970259 59.380664 75.184190 -8.763664 38.003661 12.615495 8.389736 -16.129908 -1.762256 -3.971525 -11.321670 15.671704 1.233115 -61.596899 10.444710 0.143486 1.321058 -6.047642 4.180273 -0.396496 0.246197 -15.607287 -6.596889 -7.366538 81.387556 -4.563715 8.258495 -0.058947 20.089175 0.115987 0.247229 0.288471 15.375820 -25.254795 -2.696778 8.268915 42.212152 1.061115 5.817903 -10.742460 5.817938 0.000000 -0.000000 0.000000
90.938246 80.341907 -2278.801199 174.355123 -10.146524 -2.559684 9.381047 3.440190 -1.899232 4.708683 -11.913763 -1.137499 3.224500 0.655206 -0.094172 0.915472 9.686027 -0.034904 7.766129 -0.211807 0.244541 14.422175 -0.418272 0.429742 -0.009134 -4.668884 9.475404 5.348308 -20.950854 59.647913 75.173460 -8.703384 38.025095 12.593606 8.402781 -16.170644 -1.830987 -3.978479 -11.379853 15.541699 0.665981 -61.604806 11.008366 -0.385405 1.626322 -5.920847 4.110005 -0.284259 0.022479 -16.025929 -6.738552 -7.563699 81.321004 -5.043712 7.844323 -0.798657 19.430689 -0.000000 0.000000 -0.000000 15.237351 -25.033796 -2.665628 8.616131 42.805818 1.303980 5.490645 -11.408766 5.586538 0.000000 -0.000000 0.000000
91.016571 80.381643 -2279.377701 174.572998 -10.194843 -2.487683 9.438039 3.548942 -1.954450 4.742606 -11.863147 -1.167689 3.248275 0.690028 -0.110676 0.921432 9.695879 -0.039948 7.867396 -0.306546 0.196913 14.610081 -0.588914 0.331045 -0.063350 -4.659990 9.455439 5.083347 -20.841131 59.990485 75.067373 -8.624906 37.926883 12.567415 8.392983 -16.225771 -1.898399 -4.003482 -11.439847 15.494380 0.134336 -61.601884 11.409961 -1.040789 1.858645 -5.805197 3.983318 -0.161302 -0.283180 -16.451191 -6.816438 -7.633135 81.139424 -5.447901 7.481983 -1.409295 18.876675 -0.132307 -0.187589 -0.308435 15.154892 -24.804244 -2.652685 8.817711 43.296789 1.524087 5.200454 -11.976075 5.338692 -0.000000 0.000000 0.000000
91.092947 80.438147 -2279.947555 174.811339 -10.212632 -2.445082 9.489159 3.633651 -1.997235 4.772250 -11.823742 -1.191268 3.269012 0.717099 -0.123103 0.926729 9.703538 -0.043761 7.977932 -0.383560 0.141017 14.815493 -0.725668 0.218729 -0.114036 -4.643677 9.398441 4.856730 -20.646261 60.422853 74.879470 -8.518714 37.711732 12.538041 8.364236 -16.294494 -1.966038 -4.039988 -11.504165 15.514243 -0.396801 -61.593855 11.688510 -1.831638 2.044761 -5.697536 3.795974 -0.010677 -0.685644 -16.897700 -6.831051 -7.589820 80.849861 -5.811115 7.163468 -1.918673 18.368464 -0.304716 -0.441486 -0.728600 15.142095 -24.554091 -2.661570 8.951845 43.682442 1.759022 4.887039 -12.488987 5.061082 0.000000 0.000000 0.000000
91.167808 80.509502 -2280.510658 175.070316 -10.203203 -2.429058 9.534065 3.696913 -2.028982 4.797601 -11.794331 -1.208948 3.286707 0.737264 -0.131960 0.931336 9.709244 -0.046493 8.096077 -0.444383 0.078570 15.035265 -0.831492 0.095844 -0.162111 -4.620726 9.310936 4.664354 -20.379344 60.929476 74.618312 -8.391487 37.398558 12.506823 8.318867 -16.374029 -2.033199 -4.086115 -11.571092 15.588716 -0.923455 -61.584692 11.850963 -2.727519 2.188365 -5.599653 3.560672 0.160032 -1.164884 -17.359745 -6.790355 -7.429678 80.461569 -6.111500 6.884316 -2.338279 17.901934 -0.504225 -0.747030 -1.238972 15.185338 -24.287165 -2.685974 9.026363 43.975191 2.003151 4.553259 -12.952704 4.759432 -0.000000 0.000000 -0.000000
91.241586 80.593793 -2281.066906 175.350060 -10.169861 -2.436779 9.572384 3.741340 -2.051060 4.818635 -11.773693 -1.221429 3.301354 0.751376 -0.137749 0.935225 9.713239 -0.048293 8.220169 -0.490576 0.011287 15.266244 -0.909410 -0.034553 -0.208462 -4.591971 9.199447 4.501936 -20.053596 61.495016 74.292370 -8.250112 37.006360 12.475056 8.259206 -16.461537 -2.099177 -4.139995 -11.638898 15.705343 -1.441606 -61.578028 11.904972 -3.698250 2.293128 -5.512946 3.290223 0.343304 -1.700626 -17.831444 -6.702621 -7.158352 79.983796 -6.336947 6.640216 -2.679750 17.473509 -0.718599 -1.089578 -1.817718 15.271113 -24.007353 -2.719812 9.049016 44.187565 2.250874 4.202029 -13.372394 4.439423 -0.000000 0.000000 0.000000
91.314716 80.689104 -2281.616197 175.650670 -10.115912 -2.465413 9.603721 3.769557 -2.064811 4.835319 -11.760598 -1.229398 3.312939 0.760291 -0.140965 0.938370 9.715764 -0.049309 8.348544 -0.523730 -0.059128 15.505276 -0.962525 -0.169422 -0.253949 -4.558306 9.070492 4.364818 -19.682207 62.104304 73.910015 -8.101195 36.554376 12.443973 8.187615 -16.554154 -2.163269 -4.199779 -11.705837 15.851776 -1.947159 -61.577179 11.858742 -4.713873 2.362521 -5.438192 2.997480 0.531601 -2.272284 -18.306911 -6.576559 -6.789824 79.425726 -6.483696 6.426962 -2.954848 17.080035 -0.936559 -1.454410 -2.442773 15.386042 -23.718623 -2.757216 9.027514 44.332222 2.496656 3.836317 -13.753192 4.106704 -0.000000 -0.000000 0.000000
91.387632 80.793520 -2282.158428 175.972236 -10.044669 -2.512135 9.627665 3.784207 -2.071546 4.847613 -11.753811 -1.233528 3.321446 0.764870 -0.142092 0.940739 9.717063 -0.049685 8.479540 -0.545470 -0.130985 15.749215 -0.994022 -0.305759 -0.299405 -4.520694 8.930581 4.247811 -19.278226 62.742312 73.479497 -7.950646 36.062204 12.414726 8.106510 -16.649020 -2.224784 -4.263632 -11.770144 16.015767 -2.435933 -61.585170 11.720924 -5.744627 2.399658 -5.375364 2.695272 0.717304 -2.858917 -18.780391 -6.421401 -6.344208 78.796430 -6.554139 6.240413 -3.175430 16.718671 -1.147922 -1.826691 -3.091859 15.516888 -23.425045 -2.792542 8.969535 44.421958 2.735043 3.459142 -14.100199 3.766914 0.000000 -0.000000 0.000000
91.460767 80.905124 -2282.693496 176.314842 -9.959455 -2.574139 9.643795 3.787947 -2.072547 4.855467 -11.752089 -1.234479 3.326854 0.765980 -0.141610 0.942305 9.717381 -0.049567 8.611500 -0.557455 -0.202619 15.994927 -1.007174 -0.440609 -0.345640 -4.480176 8.786214 4.145099 -18.854460 63.394106 73.008913 -7.803345 35.549875 12.388379 8.018383 -16.743305 -2.283037 -4.329741 -11.830035 16.185152 -2.903655 -61.604758 11.500521 -6.760931 2.407194 -5.323528 2.396343 0.892678 -3.439193 -19.246355 -6.246964 -5.845472 78.104846 -6.554536 6.076469 -3.353431 16.386790 -1.343701 -2.191504 -3.742461 15.650563 -23.130792 -2.820358 8.882743 44.469719 2.960671 3.073572 -14.418484 3.425691 0.000000 -0.000000 -0.000000
